# Blender v2.79 (sub 0) OBJ File: 'recruiter.blend'
# www.blender.org
mtllib Recruiter.mtl
o Recruiter_recruiter
v -0.246462 -0.012997 -0.154976
v 0.070739 0.061837 -0.278548
v -0.014855 0.311486 -0.371274
v 0.042207 0.275822 -0.399806
v 0.370317 -0.316202 0.013897
v 0.413114 -0.252007 0.021030
v -0.414292 -0.259139 0.028163
v -0.371496 -0.316202 -0.014634
v 0.042207 0.225892 0.163687
v 0.013676 0.311486 0.370538
v 0.099270 0.147431 0.213616
v 0.027942 0.254423 0.413335
v 0.056473 0.083236 0.263545
v 0.042207 0.275822 0.399069
v -0.057652 0.083236 0.263545
v -0.029121 0.254423 0.413335
v -0.014855 0.311486 0.370538
v -0.100449 0.147431 0.213616
v -0.043386 0.275822 0.399069
v -0.043386 0.225892 0.163687
v -0.043386 0.225892 -0.164424
v -0.043386 0.275822 -0.399806
v -0.100449 0.147431 -0.214353
v -0.029121 0.254423 -0.414072
v 0.056473 0.083236 -0.264282
v -0.057652 0.083236 -0.264282
v 0.027942 0.254423 -0.414072
v 0.013676 0.311486 -0.371274
v 0.099270 0.147431 -0.214353
v 0.042207 0.225892 -0.164424
v 0.370317 -0.316202 -0.014634
v 0.220528 -0.145014 -0.100228
v 0.163466 -0.223476 -0.043165
v 0.163466 -0.223476 0.042428
v 0.398848 -0.273405 0.035296
v 0.220528 -0.145014 0.099491
v 0.413114 -0.252007 -0.028900
v 0.263324 -0.087952 -0.057431
v 0.263324 -0.087952 0.049561
v 0.398848 -0.273405 -0.043165
v -0.164645 -0.230608 -0.043165
v -0.400027 -0.280538 -0.043165
v -0.214574 -0.152147 -0.100228
v -0.264503 -0.087952 -0.057431
v -0.414292 -0.259139 -0.028900
v -0.264503 -0.087952 0.056694
v -0.164645 -0.230608 0.042428
v -0.214574 -0.152147 0.099491
v -0.400027 -0.280538 0.042428
v -0.371496 -0.316202 0.013897
v -0.061428 0.243664 0.161373
v -0.061428 0.243664 -0.154976
v -0.246462 -0.012997 0.161373
v 0.072768 0.231144 -0.143039
v 0.239896 -0.007610 0.149434
v 0.239896 -0.007610 -0.143039
v 0.072768 0.231144 0.149434
v 0.134948 0.024292 0.254383
v -0.157526 0.024292 0.254383
v 0.134948 -0.214461 0.087255
v -0.157526 -0.214461 0.087255
v -0.128994 0.017742 -0.247987
v -0.128994 -0.215043 -0.080859
v 0.163480 -0.215043 -0.080859
v 0.163480 0.017742 -0.247987
v 0.142067 -0.252007 0.056694
v -0.143246 -0.252007 0.056694
v 0.220528 -0.145014 0.128022
v -0.221707 -0.145014 0.128022
v -0.278770 -0.066553 0.070960
v 0.142067 -0.252007 -0.057431
v -0.221707 -0.145014 -0.128759
v 0.070739 0.061837 0.277812
v -0.071918 0.061837 0.277812
v -0.057652 0.247291 0.142288
v -0.071918 0.061837 -0.278548
v -0.057652 0.247291 -0.143025
v 0.220528 -0.145014 -0.128759
v 0.277591 -0.066553 -0.071697
v -0.143246 -0.252007 -0.057431
v -0.278770 -0.066553 -0.071697
v 0.277591 -0.066553 0.070960
v 0.127801 0.140298 0.220749
v -0.128980 0.140298 0.220749
v -0.128980 0.140298 -0.221486
v 0.127801 0.140298 -0.221486
v 0.056473 0.247291 0.142288
v 0.056473 0.247291 -0.143025
v 0.042207 0.225892 0.163687
v 0.013676 0.311486 0.370538
v 0.013676 0.311486 0.370538
v 0.027942 0.254423 0.413335
v 0.027942 0.254423 0.413335
v 0.056473 0.083236 0.263545
v -0.043386 0.275822 0.399069
v -0.043386 0.275822 0.399069
v -0.014855 0.311486 0.370538
v -0.014855 0.311486 0.370538
v -0.100449 0.147431 0.213616
v 0.398848 -0.273405 0.035296
v 0.398848 -0.273405 0.035296
v 0.220528 -0.145014 0.099491
v 0.413114 -0.252007 -0.028900
v 0.413114 -0.252007 -0.028900
v 0.263324 -0.087952 -0.057431
v -0.214574 -0.152147 0.099491
v -0.400027 -0.280538 0.042428
v -0.400027 -0.280538 0.042428
v -0.221707 -0.145014 0.128022
v -0.221707 -0.145014 0.128022
v -0.143246 -0.252007 0.056694
v -0.143246 -0.252007 0.056694
v 0.220528 -0.145014 -0.128759
v 0.220528 -0.145014 -0.128759
v 0.277591 -0.066553 -0.071697
v 0.277591 -0.066553 -0.071697
v 0.413114 -0.252007 0.021030
v 0.413114 -0.252007 0.021030
v 0.263324 -0.087952 0.049561
v 0.070739 0.061837 -0.278548
v 0.070739 0.061837 -0.278548
v 0.127801 0.140298 -0.221486
v 0.127801 0.140298 -0.221486
v 0.042207 0.275822 0.399069
v 0.042207 0.275822 0.399069
v -0.029121 0.254423 0.413335
v -0.029121 0.254423 0.413335
v -0.029121 0.254423 -0.414072
v -0.029121 0.254423 -0.414072
v -0.043386 0.275822 -0.399806
v -0.043386 0.275822 -0.399806
v -0.014855 0.311486 -0.371274
v -0.014855 0.311486 -0.371274
v 0.027942 0.254423 -0.414072
v 0.027942 0.254423 -0.414072
v 0.042207 0.275822 -0.399806
v 0.042207 0.275822 -0.399806
v 0.013676 0.311486 -0.371274
v 0.013676 0.311486 -0.371274
v 0.370317 -0.316202 0.013897
v 0.370317 -0.316202 0.013897
v 0.370317 -0.316202 -0.014634
v 0.370317 -0.316202 -0.014634
v 0.398848 -0.273405 -0.043165
v 0.398848 -0.273405 -0.043165
v -0.414292 -0.259139 -0.028900
v -0.414292 -0.259139 -0.028900
v -0.400027 -0.280538 -0.043165
v -0.400027 -0.280538 -0.043165
v -0.371496 -0.316202 -0.014634
v -0.371496 -0.316202 -0.014634
v -0.414292 -0.259139 0.028163
v -0.414292 -0.259139 0.028163
v -0.371496 -0.316202 0.013897
v -0.371496 -0.316202 0.013897
v 0.099270 0.147431 0.213616
v -0.057652 0.083236 0.263545
v -0.043386 0.225892 0.163687
v -0.100449 0.147431 -0.214353
v -0.043386 0.225892 -0.164424
v -0.057652 0.083236 -0.264282
v 0.056473 0.083236 -0.264282
v 0.099270 0.147431 -0.214353
v 0.042207 0.225892 -0.164424
v 0.163466 -0.223476 -0.043165
v 0.220528 -0.145014 -0.100228
v 0.163466 -0.223476 0.042428
v -0.214574 -0.152147 -0.100228
v -0.164645 -0.230608 -0.043165
v -0.264503 -0.087952 -0.057431
v -0.264503 -0.087952 0.056694
v -0.164645 -0.230608 0.042428
v 0.056473 0.247291 -0.143025
v 0.056473 0.247291 -0.143025
v 0.277591 -0.066553 0.070960
v 0.277591 -0.066553 0.070960
v 0.127801 0.140298 0.220749
v 0.127801 0.140298 0.220749
v 0.056473 0.247291 0.142288
v 0.056473 0.247291 0.142288
v 0.142067 -0.252007 0.056694
v 0.142067 -0.252007 0.056694
v 0.220528 -0.145014 0.128022
v 0.220528 -0.145014 0.128022
v -0.071918 0.061837 0.277812
v -0.071918 0.061837 0.277812
v 0.070739 0.061837 0.277812
v 0.070739 0.061837 0.277812
v -0.128980 0.140298 -0.221486
v -0.128980 0.140298 -0.221486
v -0.278770 -0.066553 -0.071697
v -0.278770 -0.066553 -0.071697
v -0.278770 -0.066553 0.070960
v -0.278770 -0.066553 0.070960
v -0.057652 0.247291 -0.143025
v -0.057652 0.247291 -0.143025
v -0.057652 0.247291 0.142288
v -0.057652 0.247291 0.142288
v -0.128980 0.140298 0.220749
v -0.128980 0.140298 0.220749
v 0.142067 -0.252007 -0.057431
v 0.142067 -0.252007 -0.057431
v -0.143246 -0.252007 -0.057431
v -0.143246 -0.252007 -0.057431
v -0.221707 -0.145014 -0.128759
v -0.221707 -0.145014 -0.128759
v -0.071918 0.061837 -0.278548
v -0.071918 0.061837 -0.278548
vt 0.015625 0.332031
vt 0.335938 0.285156
vt 0.335938 0.242188
vt 0.015625 0.199219
vt 0.015625 0.332031
vt 0.335938 0.285156
vt 0.335938 0.242188
vt 0.015625 0.199219
vt 0.707031 0.527344
vt 0.792969 0.468750
vt 0.765625 0.421875
vt 0.699219 0.421875
vt 0.859375 0.421875
vt 0.664062 0.421875
vt 0.664062 0.500000
vt 0.859375 0.500000
vt 0.742188 0.503906
vt 0.875000 0.664062
vt 0.742188 0.738281
vt 0.671875 0.699219
vt 0.015625 0.332031
vt 0.335938 0.285156
vt 0.335938 0.242188
vt 0.015625 0.199219
vt 0.859375 0.421875
vt 0.664062 0.421875
vt 0.664062 0.500000
vt 0.859375 0.500000
vt 0.351562 0.285156
vt 0.332031 0.253906
vt 0.339844 0.300781
vt 0.742188 0.503906
vt 0.875000 0.664062
vt 0.742188 0.738281
vt 0.671875 0.699219
vt 0.312500 0.253906
vt 0.292969 0.285156
vt 0.351562 0.285156
vt 0.332031 0.253906
vt 0.339844 0.300781
vt 0.332031 0.253906
vt 0.292969 0.285156
vt 0.300781 0.300781
vt 0.339844 0.300781
vt 0.312500 0.253906
vt 0.292969 0.285156
vt 0.351562 0.285156
vt 0.332031 0.253906
vt 0.339844 0.300781
vt 0.312500 0.253906
vt 0.292969 0.285156
vt 0.351562 0.285156
vt 0.300781 0.300781
vt 0.312500 0.253906
vt 0.015625 0.199219
vt 0.335938 0.242188
vt 0.335938 0.285156
vt 0.015625 0.332031
vt 0.015625 0.199219
vt 0.335938 0.242188
vt 0.335938 0.285156
vt 0.015625 0.332031
vt 0.015625 0.332031
vt 0.335938 0.285156
vt 0.335938 0.242188
vt 0.015625 0.199219
vt 0.015625 0.199219
vt 0.335938 0.242188
vt 0.335938 0.285156
vt 0.015625 0.332031
vt 0.015625 0.332031
vt 0.335938 0.285156
vt 0.335938 0.242188
vt 0.015625 0.199219
vt 0.015625 0.199219
vt 0.335938 0.242188
vt 0.335938 0.285156
vt 0.015625 0.332031
vt 0.015625 0.332031
vt 0.335938 0.285156
vt 0.335938 0.242188
vt 0.015625 0.199219
vt 0.015625 0.332031
vt 0.335938 0.285156
vt 0.335938 0.242188
vt 0.015625 0.199219
vt 0.015625 0.332031
vt 0.335938 0.285156
vt 0.335938 0.242188
vt 0.015625 0.199219
vt 0.015625 0.199219
vt 0.335938 0.242188
vt 0.335938 0.285156
vt 0.015625 0.332031
vt 0.015625 0.332031
vt 0.335938 0.285156
vt 0.335938 0.242188
vt 0.015625 0.199219
vt 0.015625 0.199219
vt 0.335938 0.242188
vt 0.335938 0.285156
vt 0.015625 0.332031
vt 0.015625 0.199219
vt 0.335938 0.242188
vt 0.335938 0.285156
vt 0.015625 0.332031
vt 0.015625 0.332031
vt 0.335938 0.285156
vt 0.335938 0.242188
vt 0.015625 0.199219
vt 0.335938 0.242188
vt 0.015625 0.199219
vt 0.015625 0.332031
vt 0.335938 0.285156
vt 0.015625 0.332031
vt 0.335938 0.285156
vt 0.335938 0.242188
vt 0.015625 0.199219
vt 0.015625 0.332031
vt 0.335938 0.285156
vt 0.335938 0.242188
vt 0.015625 0.199219
vt 0.015625 0.199219
vt 0.335938 0.242188
vt 0.335938 0.285156
vt 0.015625 0.332031
vt 0.015625 0.332031
vt 0.335938 0.285156
vt 0.335938 0.242188
vt 0.015625 0.199219
vt 0.015625 0.332031
vt 0.335938 0.285156
vt 0.335938 0.242188
vt 0.015625 0.199219
vt 0.671875 0.546875
vt 0.742188 0.503906
vt 0.671875 0.699219
vt 0.300781 0.300781
vt 0.875000 0.582031
vt 0.875000 0.664062
vt 0.671875 0.546875
vt 0.875000 0.582031
vt 0.671875 0.546875
vt 0.742188 0.503906
vt 0.671875 0.699219
vt 0.300781 0.300781
vt 0.875000 0.582031
vt 0.875000 0.664062
vt 0.671875 0.546875
vt 0.742188 0.738281
vt 0.875000 0.582031
vt 0.671875 0.468750
vt 0.707031 0.527344
vt 0.699219 0.421875
vt 0.707031 0.527344
vt 0.792969 0.468750
vt 0.765625 0.421875
vt 0.699219 0.421875
vt 0.757812 0.527344
vt 0.792969 0.468750
vt 0.671875 0.468750
vt 0.707031 0.527344
vt 0.792969 0.468750
vt 0.765625 0.421875
vt 0.699219 0.421875
vt 0.757812 0.527344
vt 0.671875 0.468750
vt 0.742188 0.738281
vt 0.757812 0.527344
vt 0.671875 0.468750
vt 0.765625 0.421875
vt 0.757812 0.527344
vt 0.015625 0.332031
vt 0.335938 0.285156
vt 0.335938 0.242188
vt 0.015625 0.199219
vt 0.859375 0.421875
vt 0.664062 0.421875
vt 0.664062 0.500000
vt 0.859375 0.500000
vt 0.664062 0.500000
vt 0.859375 0.500000
vt 0.859375 0.421875
vt 0.664062 0.421875
vt 0.859375 0.421875
vt 0.664062 0.421875
vt 0.664062 0.500000
vt 0.859375 0.500000
vt 0.859375 0.421875
vt 0.664062 0.421875
vt 0.664062 0.500000
vt 0.859375 0.500000
vt 0.423123 0.332923
vt 0.261113 0.332923
vt 0.261113 0.498614
vt 0.423123 0.498614
vt 0.423123 0.498614
vt 0.261113 0.498614
vt 0.261113 0.332923
vt 0.423123 0.332923
vt 0.423123 0.332923
vt 0.261113 0.332923
vt 0.261113 0.498614
vt 0.423123 0.498614
vt 0.423123 0.332923
vt 0.261113 0.332923
vt 0.261113 0.498614
vt 0.423123 0.498614
vn -0.8637 -0.2457 0.4401
vn 0.8311 0.5440 -0.1154
vn -0.8072 -0.5902 0.0003
vn -0.8074 -0.5900 -0.0007
vn -0.8077 -0.5896 -0.0009
vn -0.8076 -0.5897 0.0003
vn -0.7071 0.0000 -0.7071
vn 0.0000 -0.5706 -0.8212
vn 0.0000 -0.5795 -0.8149
vn 0.0000 -0.5759 -0.8175
vn 0.0000 -0.5726 -0.8198
vn -0.0801 -0.5010 0.8617
vn -0.7071 0.0000 0.7071
vn -0.0733 0.5866 0.8065
vn -0.0040 0.6019 0.7986
vn -0.0140 0.5907 0.8068
vn 0.0000 -0.5706 0.8212
vn 0.0000 -0.5795 0.8149
vn 0.0000 -0.5759 0.8175
vn 0.0000 -0.5726 0.8198
vn 0.0000 0.6247 0.7808
vn 0.0138 0.5974 0.8018
vn 0.0733 0.5866 -0.8065
vn 0.0040 0.6019 -0.7986
vn 0.0140 0.5907 -0.8068
vn -0.7986 -0.6019 0.0040
vn -0.8018 -0.5974 -0.0138
vn -0.8057 -0.5920 -0.0164
vn -0.8068 -0.5907 0.0140
vn 0.0000 0.6247 -0.7808
vn -0.0138 0.5974 -0.8018
vn 0.8320 -0.5547 0.0000
vn -0.8065 -0.5866 0.0733
vn 0.0164 0.5920 0.8057
vn -0.7808 -0.6247 0.0000
vn 0.8637 -0.2457 0.4401
vn -0.4090 -0.9125 0.0000
vn 0.8637 -0.2457 -0.4401
vn 0.0000 0.9240 0.3823
vn 0.1154 -0.5440 -0.8311
vn -0.4401 0.2457 -0.8637
vn -0.7526 0.6585 0.0000
vn -0.4401 0.2457 0.8637
vn -0.8311 0.5440 0.1154
vn 0.3823 -0.9240 0.0000
vn 0.1154 -0.5440 0.8311
vn 0.0000 0.9240 -0.3823
vn 0.4644 0.2746 -0.8419
vn -0.1103 -0.5200 -0.8470
vn -0.8311 0.5440 -0.1154
vn 0.4987 0.3020 0.8124
vn 0.0000 -0.6585 0.7526
vn -0.8637 -0.2457 -0.4401
vn 0.8311 0.5440 0.1154
vn 0.7385 0.6742 0.0000
vn 0.8205 0.5707 -0.0323
vn 0.8198 0.5726 -0.0074
vn 0.8160 0.5780 0.0010
vn -0.0164 0.5920 -0.8057
vn 0.8320 0.5547 0.0000
vn 0.8207 0.5713 0.0051
vn 0.0000 -0.5547 0.8320
vn 0.0000 -0.5865 0.8099
vn -0.8099 0.5865 0.0000
vn -0.8167 0.5770 0.0016
vn -0.8184 0.5747 -0.0064
vn -0.8205 0.5707 0.0323
vn -0.8202 0.5719 0.0062
vn 0.0000 -0.5547 -0.8320
vn -0.8199 0.5724 -0.0076
vn 0.0000 -0.5865 -0.8099
vn -0.0035 0.5898 0.8075
vn -0.0003 0.5902 0.8072
vn -0.0003 0.5897 0.8076
vn 0.0003 0.5902 -0.8072
vn -0.0007 0.5900 -0.8074
vn -0.0009 0.5896 -0.8077
vn 0.0003 0.5897 -0.8076
vn 0.0000 0.5914 0.8064
vn 0.0007 0.5900 0.8074
vn 0.0035 0.5898 -0.8075
vn 0.8076 -0.5898 0.0000
vn 0.8077 -0.5896 0.0000
vn 0.8074 -0.5900 0.0000
vn 0.8071 -0.5904 0.0000
vn 0.0000 0.5914 -0.8064
vn 0.8064 -0.5914 0.0000
vn 0.8150 0.5794 0.0076
vn 0.8087 -0.5882 0.0000
vn -0.8075 -0.5898 0.0035
vn 0.0009 0.5896 0.8077
vn -0.8064 -0.5914 0.0000
vn 0.0000 -0.6585 -0.7526
vn 0.7071 0.0000 0.7071
vn 0.7071 0.0000 -0.7071
vn 0.0000 -1.0000 0.0000
vn 0.0000 1.0000 0.0000
vn 0.0000 -0.5832 -0.8123
vn 0.8192 0.5734 0.0000
vn -0.8112 0.5848 0.0000
vn 0.0000 -0.5734 0.8192
usemtl weapon1
s 1
f 15/1/1 16/2/1 19/3/1 18/4/1
f 89/5/2 90/6/2 125/7/2 11/8/2
f 203/9/3 110/10/4 194/11/5 191/12/6
f 81/13/7 85/14/7 76/15/7 72/16/7
f 205/17/8 121/18/9 78/19/10 201/20/11
f 167/21/12 5/22/12 100/23/12 102/24/12
f 69/25/13 74/26/13 84/27/13 70/28/13
f 124/29/14 91/30/15 93/31/16
f 183/32/17 185/33/18 109/34/19 111/35/20
f 91/30/15 98/36/21 96/37/22
f 130/38/23 132/39/24 129/40/25
f 150/41/26 108/42/27 152/43/28 146/44/29
f 132/39/24 138/45/30 136/46/31
f 143/47/32 144/48/32 140/49/32
f 144/48/32 104/50/32 118/51/32
f 149/52/33 150/41/26 146/44/29
f 91/30/15 96/37/22 126/53/34 93/31/16
f 150/41/26 154/54/35 108/42/27
f 156/55/36 14/56/36 92/57/36 94/58/36
f 33/59/37 31/60/37 141/61/37 34/62/37
f 25/63/38 27/64/38 137/65/38 163/66/38
f 30/67/39 28/68/39 3/69/39 21/70/39
f 169/71/40 151/72/40 148/73/40 43/74/40
f 168/75/41 42/76/41 147/77/41 170/78/41
f 44/79/42 45/80/42 153/81/42 171/82/42
f 46/83/43 7/84/43 107/85/43 106/86/43
f 160/87/44 133/88/44 131/89/44 23/90/44
f 47/91/45 50/92/45 8/93/45 41/94/45
f 48/95/46 49/96/46 155/97/46 172/98/46
f 20/99/47 17/100/47 10/101/47 9/102/47
f 38/103/48 37/104/48 40/105/48 32/106/48
f 166/107/49 145/108/49 142/109/49 165/110/49
f 97/111/50 158/112/50 99/113/50 95/114/50
f 36/115/51 35/116/51 117/117/51 119/118/51
f 13/119/52 12/120/52 127/121/52 157/122/52
f 159/123/53 22/124/53 128/125/53 161/126/53
f 29/127/54 4/128/54 139/129/54 164/130/54
f 39/131/55 6/132/55 103/133/55 105/134/55
f 123/135/56 173/136/57 116/137/58
f 132/39/24 136/46/31 134/138/59 129/40/25
f 173/136/57 179/139/60 177/140/61
f 181/141/62 183/32/17 111/35/20
f 183/32/17 187/142/63 185/33/18
f 192/143/64 193/144/65 189/145/66
f 144/48/32 118/51/32 101/146/32 140/49/32
f 193/144/65 199/147/67 197/148/68
f 204/149/69 205/17/8 201/20/11
f 193/144/65 197/148/68 195/150/70 189/145/66
f 205/17/8 207/151/71 121/18/9
f 178/152/72 180/153/73 188/154/74
f 196/155/75 86/156/76 2/157/77 208/158/78
f 180/153/73 198/159/79 200/160/80
f 190/161/81 196/155/75 208/158/78
f 113/162/82 176/163/83 184/164/84 182/165/85
f 196/155/75 174/166/86 86/156/76
f 202/167/87 113/162/82 182/165/85
f 173/136/57 177/140/61 175/168/88 116/137/58
f 113/162/82 115/169/89 176/163/83
f 206/170/90 203/9/3 191/12/6
f 180/153/73 200/160/80 186/171/91 188/154/74
f 203/9/3 112/172/92 110/10/4
f 26/173/93 24/174/93 135/175/93 162/176/93
f 82/177/94 83/178/94 73/179/94 68/180/94
f 122/181/95 79/182/95 114/183/95 120/184/95
f 66/185/96 67/186/96 80/187/96 71/188/96
f 87/189/97 88/190/97 77/191/97 75/192/97
usemtl weapon1_transparency
f 64/193/98 63/194/98 62/195/98 65/196/98
f 54/197/99 57/198/99 55/199/99 56/200/99
f 1/201/100 53/202/100 51/203/100 52/204/100
f 61/205/101 60/206/101 58/207/101 59/208/101
