# Blender v2.79 (sub 0) OBJ File: 'coringcharge.blend'
# www.blender.org
mtllib CoringCharge.mtl
o CoringCharge_Mesh_0336
v -0.042148 -0.126446 -0.118316
v 0.042148 -0.126446 -0.118316
v 0.042148 -0.016859 -0.118316
v -0.042148 -0.016859 -0.118316
v -0.050578 -0.134875 -0.118016
v 0.050578 -0.134875 -0.118016
v 0.050578 0.000000 -0.118016
v -0.050578 0.000000 -0.118016
v -0.067438 -0.160165 -0.075867
v 0.067438 -0.160165 -0.075867
v 0.067438 0.016859 -0.075867
v -0.067438 0.016859 -0.075867
v -0.025289 -0.008430 -0.109585
v 0.025289 -0.008430 -0.109585
v 0.025289 0.059008 -0.109585
v -0.025289 0.059008 -0.109585
v 0.033719 -0.025289 -0.101156
v 0.033719 0.084297 -0.101156
v -0.033719 0.084297 -0.101156
v -0.033719 -0.025289 -0.101156
v 0.000000 0.124898 0.092727
v 0.042148 0.124898 0.084297
v 0.000000 0.183906 0.092727
v 0.042148 0.183906 0.084297
v 0.075867 0.124898 0.050578
v 0.075867 0.183906 0.050578
v 0.084297 0.124898 0.008430
v 0.084297 0.183906 0.008430
v 0.075867 0.124898 -0.033719
v 0.075867 0.183906 -0.033719
v 0.042148 0.124898 -0.067438
v 0.042148 0.183906 -0.067437
v 0.000000 0.124898 -0.075867
v 0.000000 0.183906 -0.075867
v -0.042148 0.124898 -0.067438
v -0.042148 0.183906 -0.067437
v -0.075867 0.124898 -0.033719
v -0.075867 0.183906 -0.033719
v -0.084297 0.124898 0.008430
v -0.084297 0.183906 0.008430
v -0.075867 0.124898 0.050578
v -0.075867 0.183906 0.050578
v -0.042148 0.124898 0.084297
v -0.042148 0.183906 0.084297
v -0.033719 0.118016 -0.101156
v -0.092727 0.118016 -0.059008
v -0.092727 -0.311898 -0.059008
v -0.118016 -0.311898 0.008430
v -0.118016 0.118016 0.008430
v -0.092727 -0.311898 0.075867
v -0.092727 0.118016 0.075867
v -0.033719 -0.311898 0.118016
v -0.033719 0.118016 0.118016
v 0.033719 -0.311898 0.118016
v 0.033719 0.118016 0.118016
v 0.092727 -0.311898 0.075867
v 0.092727 0.118016 0.075867
v 0.118016 -0.311898 0.008430
v 0.118016 0.118016 0.008430
v 0.092727 -0.311898 -0.059008
v 0.092727 0.118016 -0.059008
v 0.033719 -0.311898 -0.101156
v 0.033719 0.118016 -0.101156
v -0.033719 -0.311898 -0.101156
v -0.118016 0.320328 0.008430
v 0.000000 0.320328 0.008430
v -0.092727 0.320328 -0.059008
v -0.033719 0.320328 -0.101156
v 0.033719 0.320328 -0.101156
v 0.092727 0.320328 -0.059008
v 0.118016 0.320328 0.008430
v 0.092727 0.320328 0.075867
v 0.033719 0.320328 0.118016
v -0.033719 0.320328 0.118016
v -0.092727 0.320328 0.075867
v 0.000000 -0.311898 0.008430
v -0.092727 0.185453 -0.059008
v -0.033719 0.185453 -0.101156
v 0.033719 0.185453 -0.101156
v 0.092727 0.185453 -0.059008
v 0.118016 0.185453 0.008430
v 0.092727 0.185453 0.075867
v 0.033719 0.185453 0.118016
v -0.033719 0.185453 0.118016
v -0.092727 0.185453 0.075867
v -0.118016 0.185453 0.008430
v 0.000000 0.160165 0.008430
v 0.000000 0.168594 0.008430
v 0.000467 -0.059514 -0.118603
v 0.034236 -0.059514 -0.118603
v 0.034236 -0.023626 -0.118603
v 0.000467 -0.023626 -0.118603
v -0.037291 -0.059514 -0.118603
v -0.003522 -0.059514 -0.118603
v -0.003522 -0.023626 -0.118603
v -0.037291 -0.023626 -0.118603
v -0.033517 -0.302433 0.118639
v -0.033517 0.083311 0.118639
v 0.033921 -0.302433 0.118639
v 0.033921 0.083311 0.118639
v 0.064344 -0.302433 0.096908
v 0.064344 0.083311 0.096908
v 0.033719 0.185453 0.118016
v -0.033719 0.185453 0.118016
v -0.033719 0.118016 0.118016
v 0.033719 0.118016 0.118016
v 0.092727 0.320328 0.075867
v 0.033719 0.320328 0.118016
v -0.092727 0.118016 0.075867
v 0.092727 0.320328 -0.059008
v 0.118016 0.320328 0.008430
v -0.092727 -0.311898 -0.059008
v -0.118016 -0.311898 0.008430
v 0.033719 0.185453 -0.101156
v 0.092727 0.185453 -0.059008
v 0.092727 -0.311898 -0.059008
v 0.033719 -0.311898 -0.101156
v 0.118016 0.185453 0.008430
v 0.092727 0.185453 0.075867
v 0.092727 -0.311898 0.075867
v 0.118016 -0.311898 0.008430
v -0.092727 -0.311898 0.075867
v -0.033719 -0.311898 0.118016
v -0.033719 0.320328 0.118016
v 0.118016 0.118016 0.008430
v 0.092727 0.118016 -0.059008
v 0.033719 -0.311898 0.118016
v -0.092727 0.185453 -0.059008
v -0.033719 0.185453 -0.101156
v 0.092727 0.118016 0.075867
v -0.092727 0.185453 0.075867
v -0.092727 0.320328 -0.059008
v -0.033719 0.320328 -0.101156
v 0.033719 0.320328 -0.101156
v -0.033719 -0.311898 -0.101156
v -0.092727 0.320328 0.075867
v 0.033719 0.118016 -0.101156
v -0.118016 0.118016 0.008430
v -0.118016 0.185453 0.008430
v -0.033719 0.118016 -0.101156
v -0.092727 0.118016 -0.059008
v -0.118016 0.320328 0.008430
vt 0.566406 0.246094
vt 0.542969 0.324219
vt 0.464844 0.324219
vt 0.445312 0.246094
vt 0.566406 0.246094
vt 0.542969 0.324219
vt 0.464844 0.324219
vt 0.445312 0.246094
vt 0.566406 0.246094
vt 0.542969 0.324219
vt 0.464844 0.324219
vt 0.445312 0.246094
vt 0.566406 0.246094
vt 0.464844 0.324219
vt 0.445312 0.246094
vt 0.542969 0.324219
vt 0.566406 0.246094
vt 0.542969 0.324219
vt 0.464844 0.324219
vt 0.445312 0.246094
vt 0.566406 0.246094
vt 0.464844 0.324219
vt 0.445312 0.246094
vt 0.542969 0.324219
vt 0.566406 0.246094
vt 0.542969 0.324219
vt 0.464844 0.324219
vt 0.445312 0.246094
vt 0.437500 0.148438
vt 0.445312 0.246094
vt 0.566406 0.246094
vt 0.566406 0.148438
vt 0.437500 0.148438
vt 0.445312 0.246094
vt 0.566406 0.246094
vt 0.566406 0.148438
vt 0.439604 0.146995
vt 0.447416 0.242758
vt 0.568531 0.243246
vt 0.569507 0.146995
vt 0.049476 0.010835
vt 0.049476 0.369832
vt 0.005330 0.369832
vt 0.005330 0.010835
vt 0.189939 0.010835
vt 0.189939 0.369832
vt 0.117701 0.369832
vt 0.117701 0.010835
vt 0.049476 0.010835
vt 0.049476 0.369832
vt 0.117701 0.369832
vt 0.117701 0.010835
vt 0.234085 0.010835
vt 0.234085 0.369832
vt 0.189939 0.369832
vt 0.189939 0.010835
vt 0.234085 0.010835
vt 0.234085 0.369832
vt 0.005330 0.369832
vt 0.005330 0.010835
vt 0.234085 0.010835
vt 0.234085 0.369832
vt 0.234085 0.010835
vt 0.234085 0.369832
vt 0.049476 0.369832
vt 0.049476 0.010835
vt 0.189939 0.010835
vt 0.189939 0.369832
vt 0.189939 0.369832
vt 0.189939 0.010835
vt 0.005330 0.369832
vt 0.005330 0.010835
vt 0.117701 0.369832
vt 0.117701 0.010835
vt 0.214019 0.373778
vt 0.173886 0.255426
vt 0.133753 0.373778
vt 0.214019 0.373778
vt 0.133753 0.373778
vt 0.214019 0.373778
vt 0.133753 0.373778
vt 0.214019 0.373778
vt 0.133753 0.373778
vt 0.214019 0.373778
vt 0.133753 0.373778
vt 0.189939 0.010835
vt 0.117701 0.369832
vt 0.117701 0.010835
vt 0.189939 0.010835
vt 0.117701 0.010835
vt 0.189939 0.010835
vt 0.117701 0.010835
vt 0.189939 0.010835
vt 0.117701 0.010835
vt 0.189939 0.010835
vt 0.117701 0.010835
vt 0.005330 0.369832
vt 0.005330 0.010835
vt 0.117701 0.010835
vt 0.117701 0.369832
vt 0.049476 0.369832
vt 0.049476 0.010835
vt 0.214019 0.373778
vt 0.173886 0.255426
vt 0.133753 0.373778
vt 0.133753 0.373778
vt 0.214019 0.373778
vt 0.133753 0.373778
vt 0.214019 0.373778
vt 0.133753 0.373778
vt 0.214019 0.373778
vt 0.133753 0.373778
vt 0.214019 0.373778
vt 0.133753 0.373778
vt 0.173886 0.255426
vt 0.214019 0.373778
vt 0.133753 0.373778
vt 0.214019 0.373778
vt 0.133753 0.373778
vt 0.214019 0.373778
vt 0.133753 0.373778
vt 0.214019 0.373778
vt 0.133753 0.373778
vt 0.214019 0.373778
vt 0.133753 0.373778
vt 0.214019 0.373778
vt 0.133753 0.373778
vt 0.214019 0.373778
vt 0.133753 0.373778
vt 0.214019 0.373778
vt 0.133753 0.373778
vt 0.214019 0.373778
vt 0.133753 0.373778
vt 0.214019 0.373778
vt 0.050419 0.451140
vt 0.205519 0.451140
vt 0.205519 0.470426
vt 0.050419 0.470426
vt 0.205519 0.490904
vt 0.050419 0.490904
vt 0.056136 0.072011
vt 0.056136 0.932158
vt 0.936984 0.932158
vt 0.943864 0.072011
vt 0.098799 0.061304
vt 0.098799 0.936370
vt 0.913669 0.936370
vt 0.920034 0.061304
vt 1.003350 0.346265
vt -0.006657 0.346265
vt -0.006657 0.269713
vt 1.003350 0.269713
vt 1.003350 0.657942
vt -0.006657 0.657942
vt -0.006657 0.579567
vt 1.003350 0.579567
vt 1.003350 0.891245
vt -0.006657 0.891245
vt -0.006657 0.812870
vt 1.003350 0.812870
vt 1.003350 0.736317
vt -0.006657 0.736317
vt 1.003350 0.191338
vt -0.006657 0.191338
vt -0.006657 0.112962
vt 1.003350 0.112962
vt 1.003350 0.967797
vt -0.006657 0.967798
vt -0.006657 0.036410
vt 1.003350 0.036410
vt 1.003350 0.424640
vt -0.006657 0.424641
vt 1.003350 0.503014
vt -0.006657 0.503014
vn 0.0000 0.9285 -0.3714
vn -0.9285 0.0000 -0.3714
vn 0.9285 0.0000 -0.3714
vn 0.7071 0.0000 -0.7071
vn 0.0000 -0.8575 -0.5145
vn -0.7071 0.0000 -0.7071
vn 0.0000 0.3162 -0.9487
vn 0.0000 0.0000 -1.0000
vn 0.7932 0.0000 0.6089
vn 0.3052 0.0000 0.9523
vn -0.7932 0.0000 -0.6089
vn -1.0000 0.0000 0.0000
vn -0.7932 0.0000 0.6089
vn 0.3052 0.0000 -0.9523
vn 0.7932 0.0000 -0.6089
vn -0.3052 0.0000 -0.9523
vn -0.3052 0.0000 0.9523
vn 1.0000 0.0000 0.0000
vn 0.0000 1.0000 0.0000
vn 0.0000 -1.0000 0.0000
vn 0.2745 0.9385 -0.2091
vn 0.3363 0.9417 0.0000
vn 0.1047 0.9386 -0.3287
vn -0.1047 0.9386 -0.3287
vn -0.2745 0.9385 -0.2091
vn -0.3363 0.9417 0.0000
vn -0.2745 0.9385 0.2091
vn -0.1047 0.9386 0.3287
vn 0.1047 0.9386 0.3287
vn 0.2745 0.9385 0.2091
vn -0.1158 -0.9893 -0.0882
vn -0.1414 -0.9899 0.0000
vn -0.0441 -0.9893 -0.1386
vn 0.0441 -0.9893 -0.1386
vn 0.1158 -0.9893 -0.0882
vn 0.1414 -0.9899 0.0000
vn 0.1158 -0.9893 0.0881
vn 0.0441 -0.9893 0.1386
vn -0.0441 -0.9893 0.1386
vn -0.1158 -0.9893 0.0882
vn 0.5812 0.0000 0.8137
vn 0.0000 0.0000 1.0000
vn 0.8816 0.0000 -0.4718
vn -0.8816 0.0000 -0.4718
vn -0.4718 0.0000 -0.8816
vn -0.4718 0.0000 0.8816
vn -0.8816 0.0000 0.4718
vn 0.8816 0.0000 0.4718
vn 0.4718 0.0000 0.8816
vn 0.4718 0.0000 -0.8816
usemtl weapon1
s off
f 11/1/1 7/2/1 8/3/1 12/4/1
f 12/5/2 8/6/2 5/7/2 9/8/2
f 10/9/3 6/10/3 7/11/3 11/12/3
f 17/13/4 15/14/4 18/15/4
f 15/14/4 17/13/4 14/16/4
f 9/17/5 5/18/5 6/19/5 10/20/5
f 19/21/6 13/22/6 20/23/6
f 13/22/6 19/21/6 16/24/6
f 18/25/7 15/26/7 16/27/7 19/28/7
f 13/29/8 16/30/8 15/31/8 14/32/8
f 5/33/8 8/34/8 7/35/8 6/36/8
s 1
f 1/37/8 4/38/8 3/39/8 2/40/8
usemtl weapon1_tinted
f 56/41/9 130/42/9 106/43/10 127/44/10
f 67/45/11 128/46/11 139/47/12 65/48/12
f 50/49/13 109/50/13 138/51/12 113/52/12
f 117/53/14 137/54/14 126/55/15 116/56/15
f 135/57/16 140/58/16 137/54/14 117/53/14
f 127/44/10 106/43/10 105/59/17 123/60/17
f 67/45/11 133/61/16 129/62/16 128/46/11
f 134/63/14 114/64/14 129/62/16 133/61/16
f 65/48/12 139/47/12 131/65/13 136/66/13
f 70/67/15 115/68/15 114/64/14 134/63/14
f 113/52/12 138/51/12 141/69/11 112/70/11
f 135/57/16 112/70/11 141/69/11 140/58/16
f 136/66/13 131/65/13 104/71/17 74/72/17
f 116/56/15 126/55/15 125/73/18 58/74/18
f 142/75/19 66/76/19 132/77/19
f 132/77/19 66/76/19 68/78/19
f 68/78/19 66/76/19 69/79/19
f 69/79/19 66/76/19 110/80/19
f 110/80/19 66/76/19 111/81/19
f 111/81/19 66/76/19 107/82/19
f 107/82/19 66/76/19 108/83/19
f 108/83/19 66/76/19 124/84/19
f 124/84/19 66/76/19 75/85/19
f 66/76/19 142/75/19 75/85/19
f 121/86/20 76/87/20 60/88/20
f 60/88/20 76/87/20 62/89/20
f 62/89/20 76/87/20 64/90/20
f 64/90/20 76/87/20 47/91/20
f 47/91/20 76/87/20 48/92/20
f 48/92/20 76/87/20 122/93/20
f 122/93/20 76/87/20 52/94/20
f 52/94/20 76/87/20 54/95/20
f 54/95/20 76/87/20 120/96/20
f 76/87/20 121/86/20 120/96/20
f 74/72/17 104/71/17 103/97/10 73/98/10
f 58/74/18 125/73/18 130/42/9 56/41/9
f 123/60/17 105/59/17 109/50/13 50/49/13
f 71/99/18 81/100/18 115/68/15 70/67/15
f 73/98/10 103/97/10 82/101/9 72/102/9
f 61/103/21 87/104/19 59/105/22
f 63/106/23 87/104/19 61/103/21
f 45/107/24 87/104/19 63/106/23
f 46/108/25 87/104/19 45/107/24
f 49/109/26 87/104/19 46/108/25
f 51/110/27 87/104/19 49/109/26
f 53/111/28 87/104/19 51/110/27
f 55/112/29 87/104/19 53/111/28
f 57/113/30 87/104/19 55/112/29
f 59/105/22 87/104/19 57/113/30
f 77/114/31 88/115/20 86/116/32
f 78/117/33 88/115/20 77/118/31
f 79/119/34 88/115/20 78/120/33
f 80/121/35 88/115/20 79/122/34
f 118/123/36 88/115/20 80/124/35
f 119/125/37 88/115/20 118/126/36
f 83/127/38 88/115/20 119/128/37
f 84/129/39 88/115/20 83/130/38
f 85/131/40 88/115/20 84/132/39
f 86/133/32 88/115/20 85/134/40
f 72/102/9 82/101/9 81/100/18 71/99/18
f 101/135/41 102/136/41 100/137/10 99/138/10
f 99/138/10 100/137/10 98/139/42 97/140/42
usemtl redlight
f 89/141/8 92/142/8 91/143/8 90/144/8
usemtl yellowlight
f 93/145/8 96/146/8 95/147/8 94/148/8
usemtl light_texturescroll
f 29/149/43 30/150/43 28/151/18 27/152/18
f 37/153/44 38/154/44 36/155/45 35/156/45
f 43/157/46 44/158/46 42/159/47 41/160/47
f 39/161/12 40/162/12 38/154/44 37/153/44
f 25/163/48 26/164/48 24/165/49 22/166/49
f 21/167/42 23/168/42 44/158/46 43/157/46
f 22/166/49 24/165/49 23/169/42 21/170/42
f 27/152/18 28/151/18 26/164/48 25/163/48
f 31/171/50 32/172/50 30/150/43 29/149/43
f 33/173/8 34/174/8 32/172/50 31/171/50
f 41/160/47 42/159/47 40/162/12 39/161/12
f 35/156/45 36/155/45 34/174/8 33/173/8
