# Blender v2.79 (sub 0) OBJ File: 'renders.blend'
# www.blender.org
mtllib Toaster.mtl
o Toaster_Mesh_0282
v -0.201792 0.096026 0.521180
v -0.201792 -0.005008 0.521180
v -0.201792 0.096026 0.218076
v -0.201792 -0.005008 -0.994336
v -0.201792 0.298095 -0.522843
v -0.201792 0.399129 0.218076
v -0.201792 0.399129 -0.421808
v 0.202345 0.399129 -0.421808
v 0.202345 0.298095 -0.522843
v 0.202345 0.399129 0.218076
v 0.202345 0.096026 0.218076
v 0.202345 -0.005008 -0.994336
v 0.202345 -0.005008 0.521180
v 0.202345 0.096026 0.521180
v 0.168667 -0.038686 -0.926980
v -0.168114 -0.038686 -0.926980
v -0.134436 0.466486 -0.388130
v -0.134436 0.466486 0.150720
v 0.134989 0.466486 0.150720
v 0.134989 0.466486 -0.388130
v 0.202345 0.298095 -0.994336
v -0.201792 0.298095 -0.994336
v 0.101311 -0.005008 0.622214
v 0.101311 0.096026 0.622214
v -0.100758 0.096026 0.622214
v -0.100758 -0.005008 0.622214
v -0.134436 0.163382 0.521180
v 0.134989 0.163382 0.521180
v 0.134989 0.163382 0.218076
v -0.134436 0.163382 0.218076
v 0.168667 -0.038686 0.521180
v -0.168114 -0.038686 0.521180
v -0.235470 0.096026 -0.926980
v -0.235470 0.230739 -0.825945
v -0.235470 0.096026 0.184398
v -0.235470 0.230739 -0.421808
v -0.235470 0.331773 -0.354452
v -0.235470 0.331773 0.184398
v -0.134436 -0.173399 0.251754
v -0.168114 -0.139721 0.386467
v 0.000276 -0.173399 0.218076
v 0.000276 -0.139721 0.554858
v 0.168667 -0.139721 0.386467
v 0.134989 -0.139721 0.487501
v 0.236023 0.331773 0.184398
v 0.236023 0.331773 -0.354452
v 0.236023 0.096026 0.184398
v 0.236023 0.230739 -0.421808
v 0.236023 0.230739 -0.825945
v 0.236023 0.096026 -0.926980
v 0.134989 -0.173399 0.251754
v 0.000276 -0.038686 0.218076
v -0.100758 -0.038686 0.251754
v -0.134436 -0.038686 0.352789
v -0.100758 -0.038686 0.453823
v -0.134436 -0.139721 0.487501
v 0.000276 -0.038686 0.521180
v 0.101311 -0.038686 0.453823
v 0.134989 -0.038686 0.352789
v 0.101311 -0.038686 0.251754
v 0.101311 -0.106043 -0.051349
v 0.101311 -0.207077 -0.152383
v 0.101311 -0.207077 -0.590199
v 0.101311 -0.038686 0.218076
v 0.101311 -0.038686 -0.758589
v 0.101311 -0.106043 0.218076
v -0.168114 0.298095 -0.522843
v -0.134436 0.399129 -0.421808
v -0.134436 0.399130 -0.893302
v -0.168114 0.298095 -0.994336
v 0.134989 0.399130 -0.893302
v 0.134989 0.399129 -0.421808
v 0.168667 0.298095 -0.522843
v 0.168667 0.298095 -0.994336
v -0.100758 -0.207077 -0.590199
v -0.100758 -0.038686 -0.758589
v -0.100758 -0.207077 -0.152383
v -0.100758 -0.106043 -0.051349
v -0.100758 -0.106043 0.218076
v -0.100758 -0.038686 0.218076
v -0.033402 0.129704 1.127386
v -0.033402 0.129704 1.161064
v 0.033954 0.129704 1.161064
v 0.033954 0.129704 1.127386
v 0.033954 0.028670 0.386467
v 0.033954 0.096026 0.386467
v 0.033954 0.096026 1.060030
v 0.033954 0.062348 1.060030
v -0.033402 0.096026 1.060030
v -0.033402 0.096026 0.386467
v -0.033402 0.028670 0.386467
v -0.033402 0.062348 1.060030
v 0.101311 0.298095 0.184398
v 0.067633 0.365451 0.184398
v 0.067633 0.365451 0.723248
v 0.000276 0.399129 0.723248
v 0.000276 0.399129 0.184398
v -0.067080 0.365451 0.723248
v -0.067080 0.365451 0.184398
v -0.100758 0.298095 0.723248
v -0.100758 0.298095 0.184398
v -0.067080 0.230739 0.723248
v -0.067080 0.230739 0.184398
v 0.000276 0.197060 0.723248
v 0.000276 0.197061 0.184398
v 0.067633 0.230739 0.723248
v 0.067633 0.230739 0.184398
v 0.101311 0.298095 0.723248
v -0.471217 0.163382 -0.017671
v -0.403861 0.264417 0.016007
v -0.403861 0.129704 0.184398
v -0.336505 0.163382 0.184398
v -0.302827 0.062348 0.352789
v -0.201792 0.096026 0.285432
v -0.336505 -0.038686 0.319111
v -0.403861 0.028670 0.150720
v -0.403861 0.096026 -0.051349
v -0.403861 0.230739 -0.186061
v -0.403861 0.331773 -0.152383
v -0.302827 0.331773 -0.085027
v -0.302827 0.230739 0.016007
v -0.269149 0.129704 0.150720
v -0.201792 0.028670 0.218076
v -0.100758 0.028670 0.319111
v -0.100758 -0.072365 0.285432
v -0.100758 0.028670 0.420145
v -0.134436 -0.072365 0.453823
v -0.134436 -0.139721 0.352789
v -0.269149 -0.072365 0.251754
v -0.302827 0.028670 0.117042
v -0.302827 0.129704 -0.017671
v -0.302827 0.163382 -0.186061
v -0.235470 0.230739 -0.287096
v -0.235470 0.331773 -0.287095
v -0.235470 0.365451 -0.186061
v -0.235470 0.264417 -0.118705
v -0.269149 0.230739 -0.118705
v 0.101311 0.399129 0.790605
v 0.000276 0.466485 0.790605
v -0.100758 0.399129 0.790605
v -0.168114 0.298095 0.790605
v -0.100758 0.197060 0.790605
v 0.000276 0.129704 0.790605
v 0.101311 0.197060 0.790605
v 0.168667 0.298095 0.790605
v 0.067633 0.365451 1.060030
v 0.000276 0.399129 1.060030
v -0.067080 0.365451 1.060030
v -0.100758 0.298095 1.060030
v -0.067080 0.230738 1.060030
v 0.000276 0.197060 1.060030
v 0.067633 0.230738 1.060030
v 0.101311 0.298095 1.060030
v -0.235470 0.197061 -0.186061
v 0.000276 0.298095 1.060030
v -0.100758 0.467406 -0.320774
v -0.100758 0.467406 0.083364
v 0.101311 0.467406 0.083364
v 0.101311 0.467406 -0.320774
v 0.134989 0.298095 0.150720
v 0.101311 0.399129 0.150720
v 0.101311 0.399129 0.655892
v 0.134989 0.298095 0.655892
v 0.000276 0.432807 0.150720
v 0.000276 0.432807 0.655892
v -0.100758 0.399129 0.150720
v -0.100758 0.399129 0.655892
v -0.134436 0.298095 0.150720
v -0.134436 0.298095 0.655892
v -0.100758 0.197061 0.150720
v -0.100758 0.197060 0.655892
v 0.000276 0.163382 0.150720
v 0.000276 0.163382 0.655892
v 0.101311 0.197061 0.150720
v 0.101311 0.197060 0.655892
v 0.000276 -0.139721 0.554858
v 0.134989 -0.139721 0.487501
v 0.101311 0.399129 0.790605
v 0.000276 0.466485 0.790605
v -0.100758 0.298095 0.723248
v -0.067080 0.230739 0.723248
v 0.067633 0.230738 1.060030
v 0.101311 0.298095 1.060030
v 0.168667 -0.139721 0.386467
v 0.000276 0.399129 1.060030
v -0.067080 0.365451 1.060030
v 0.000276 0.197060 0.723248
v 0.067633 0.230739 0.723248
v -0.067080 0.365451 0.723248
v 0.000276 0.129704 0.790605
v 0.101311 0.197060 0.790605
v -0.067080 0.230738 1.060030
v 0.000276 0.197060 1.060030
v 0.168667 0.298095 0.790605
v -0.100758 0.298095 1.060030
v 0.067633 0.365451 0.723248
v 0.000276 0.399129 0.723248
v -0.100758 0.197060 0.790605
v 0.101311 0.298095 0.723248
v -0.100758 0.399129 0.790605
v -0.134436 -0.173399 0.251754
v -0.168114 -0.139721 0.386467
v -0.168114 0.298095 0.790605
v 0.067633 0.365451 1.060030
v 0.134989 -0.173399 0.251754
v 0.000276 -0.173399 0.218076
v -0.134436 -0.139721 0.487501
vt 0.960938 0.476562
vt 0.898438 0.476562
vt 0.960938 0.457031
vt 0.671875 0.457031
vt 0.761719 0.511719
vt 0.898438 0.531250
vt 0.777344 0.531250
vt 0.777344 0.531250
vt 0.898438 0.531250
vt 0.761719 0.511719
vt 0.898438 0.476562
vt 0.671875 0.457031
vt 0.960938 0.457031
vt 0.960938 0.476562
vt 0.886719 0.542969
vt 0.785156 0.542969
vt 0.230469 0.644531
vt 0.355469 0.644531
vt 0.355469 0.886719
vt 0.230469 0.886719
vt 0.957031 0.570312
vt 0.957031 0.617188
vt 0.898438 0.617188
vt 0.898438 0.570312
vt 0.148438 0.054688
vt 0.140625 0.289062
vt 0.113281 0.289062
vt 0.109375 0.054688
vt 0.980469 0.664062
vt 0.957031 0.652344
vt 0.957031 0.710938
vt 0.980469 0.699219
vt 0.167969 0.519531
vt 0.292969 0.519531
vt 0.292969 0.761719
vt 0.167969 0.761719
vt 0.886719 0.542969
vt 0.785156 0.542969
vt 0.839844 0.730469
vt 0.820312 0.683594
vt 0.925781 0.683594
vt 0.902344 0.730469
vt 0.324219 0.710938
vt 0.085938 0.710938
vt 0.085938 0.820312
vt 0.324219 0.820312
vt 0.140625 0.292969
vt 0.148438 0.054688
vt 0.085938 0.054688
vt 0.093750 0.292969
vt 0.257812 0.648438
vt 0.015625 0.648438
vt 0.015625 0.890625
vt 0.257812 0.890625
vt 0.820312 0.683594
vt 0.925781 0.683594
vt 0.902344 0.730469
vt 0.839844 0.730469
vt 0.683594 0.449219
vt 0.957031 0.449219
vt 0.683594 0.449219
vt 0.957031 0.449219
vt 0.074219 0.335938
vt 0.074219 0.164062
vt 0.179688 0.164062
vt 0.179688 0.335938
vt 0.132812 0.324219
vt 0.105469 0.324219
vt 0.671875 0.632812
vt 0.671875 0.558594
vt 0.761719 0.558594
vt 0.761719 0.632812
vt 0.671875 0.511719
vt 0.671875 0.511719
vt 0.980469 0.457031
vt 0.980469 0.457031
vt 0.980469 0.574219
vt 0.960938 0.558594
vt 0.960938 0.632812
vt 0.980469 0.613281
vt 0.566406 0.871094
vt 0.597656 0.859375
vt 0.625000 0.992188
vt 0.566406 0.992188
vt 0.625000 0.738281
vt 0.597656 0.757812
vt 0.566406 0.871094
vt 0.566406 0.992188
vt 0.625000 0.992188
vt 0.597656 0.859375
vt 0.597656 0.757812
vt 0.625000 0.738281
vt 0.058594 0.109375
vt 0.199219 0.109375
vt 0.656250 0.929688
vt 0.675781 0.906250
vt 0.675781 0.777344
vt 0.644531 1.000000
vt 0.644531 0.750000
vt 0.656250 0.996094
vt 0.644531 0.867188
vt 0.675781 0.882812
vt 0.675781 0.781250
vt 0.644531 0.753906
vt 0.675781 0.781250
vt 0.675781 0.882812
vt 0.644531 0.867188
vt 0.644531 0.753906
vt 0.722656 0.683594
vt 0.812500 0.683594
vt 0.812500 0.730469
vt 0.722656 0.730469
vt 0.898438 0.558594
vt 0.343750 0.898438
vt 0.218750 0.898438
vt 0.218750 0.656250
vt 0.343750 0.656250
vt 0.691406 0.667969
vt 0.691406 0.464844
vt 0.960938 0.464844
vt 0.960938 0.667969
vt 0.238281 0.710938
vt 0.238281 0.820312
vt 0.089844 0.523438
vt 0.308594 0.523438
vt 0.308594 0.761719
vt 0.089844 0.761719
vt 0.101562 0.289062
vt 0.101562 0.054688
vt 0.140625 0.054688
vt 0.128906 0.292969
vt 0.140625 0.054688
vt 0.101562 0.054688
vt 0.101562 0.289062
vt 0.128906 0.292969
vt 0.656250 0.929688
vt 0.656250 0.996094
vt 0.644531 1.000000
vt 0.675781 0.777344
vt 0.644531 0.750000
vt 0.675781 0.906250
vt 0.011719 0.710938
vt 0.011719 0.820312
vt 0.042969 0.800781
vt 0.042969 0.667969
vt 0.292969 0.667969
vt 0.292969 0.800781
vt 0.097656 0.324219
vt 0.117188 0.339844
vt 0.117188 0.339844
vt 0.097656 0.324219
vt 0.683594 0.710938
vt 0.683594 0.652344
vt 0.812500 0.683594
vt 0.812500 0.730469
vt 0.722656 0.730469
vt 0.722656 0.683594
vt 0.035156 0.640625
vt 0.312500 0.640625
vt 0.312500 0.878906
vt 0.035156 0.878906
vt 0.785156 0.566406
vt 0.886719 0.566406
vt 0.886719 0.621094
vt 0.785156 0.621094
vt 0.980469 0.476562
vt 0.132812 0.335938
vt 0.105469 0.335938
vt 0.753906 0.457031
vt 0.742188 0.449219
vt 0.718750 0.683594
vt 0.812500 0.683594
vt 0.812500 0.730469
vt 0.718750 0.730469
vt 0.109375 0.710938
vt 0.109375 0.820312
vt 0.898438 0.632812
vt 0.980469 0.476562
vt 0.035156 0.367188
vt 0.066406 0.367188
vt 0.066406 0.023438
vt 0.035156 0.023438
vt 0.914062 0.226562
vt 0.957031 0.226562
vt 0.957031 0.031250
vt 0.914062 0.031250
vt 0.109375 0.320312
vt 0.101562 0.320312
vt 0.121094 0.320312
vt 0.183594 0.343750
vt 0.144531 0.343750
vt 0.144531 0.226562
vt 0.183594 0.226562
vt 0.140625 0.320312
vt 0.121094 0.320312
vt 0.132812 0.320312
vt 0.207031 0.398438
vt 0.195312 0.300781
vt 0.218750 0.300781
vt 0.218750 0.300781
vt 0.121094 0.367188
vt 0.175781 0.367188
vt 0.175781 0.304688
vt 0.121094 0.304688
vt 0.066406 0.367188
vt 0.066406 0.304688
vt 0.027344 0.304688
vt 0.027344 0.367188
vt 0.214844 0.367188
vt 0.175781 0.367188
vt 0.175781 0.304688
vt 0.214844 0.304688
vt 0.121094 0.367188
vt 0.121094 0.304688
vt 0.066406 0.367188
vt 0.066406 0.304688
vt 0.914062 0.226562
vt 0.957031 0.226562
vt 0.957031 0.031250
vt 0.914062 0.031250
vt 0.140625 0.367188
vt 0.171875 0.367188
vt 0.171875 0.023438
vt 0.140625 0.023438
vt 0.914062 0.226562
vt 0.957031 0.226562
vt 0.957031 0.031250
vt 0.914062 0.031250
vt 0.914062 0.226562
vt 0.957031 0.226562
vt 0.957031 0.031250
vt 0.914062 0.031250
vt 0.101562 0.367188
vt 0.101562 0.023438
vt 0.914062 0.226562
vt 0.957031 0.226562
vt 0.957031 0.031250
vt 0.914062 0.031250
vt 0.914062 0.226562
vt 0.957031 0.226562
vt 0.957031 0.031250
vt 0.914062 0.031250
vt 0.109375 0.320312
vt 0.132812 0.320312
vt 0.140625 0.367188
vt 0.140625 0.023438
vt 0.914062 0.226562
vt 0.957031 0.226562
vt 0.957031 0.031250
vt 0.914062 0.031250
vt 0.101562 0.367188
vt 0.066406 0.367188
vt 0.066406 0.023438
vt 0.101562 0.023438
vt 0.949219 0.398438
vt 0.949219 0.257812
vt 0.917969 0.398438
vt 0.917969 0.257812
vt 0.949219 0.382812
vt 0.917969 0.382812
vt 0.917969 0.382812
vt 0.917969 0.257812
vt 0.917969 0.398438
vt 0.949219 0.257812
vt 0.917969 0.257812
vt 0.886719 0.257812
vt 0.886719 0.398438
vt 0.886719 0.257812
vt 0.886719 0.382812
vt 0.917969 0.257812
vt 0.886719 0.257812
vt 0.949219 0.257812
vt 0.917969 0.257812
vt 0.886719 0.257812
vt 0.886719 0.382812
vt 0.886719 0.257812
vt 0.886719 0.398438
vt 0.917969 0.257812
vt 0.949219 0.351562
vt 0.917969 0.351562
vt 0.886719 0.351562
vt 0.917969 0.351562
vt 0.917969 0.257812
vt 0.917969 0.398438
vt 0.917969 0.257812
vt 0.917969 0.382812
vt 0.917969 0.257812
vt 0.062500 0.371094
vt 0.105469 0.371094
vt 0.105469 0.324219
vt 0.062500 0.324219
vt 0.144531 0.371094
vt 0.105469 0.371094
vt 0.105469 0.324219
vt 0.144531 0.324219
vt 0.144531 0.371094
vt 0.183594 0.371094
vt 0.179688 0.324219
vt 0.144531 0.324219
vt 0.027344 0.371094
vt 0.027344 0.324219
vt 0.062500 0.324219
vt 0.062500 0.371094
vt 0.062500 0.343750
vt 0.105469 0.343750
vt 0.105469 0.226562
vt 0.062500 0.226562
vt 0.105469 0.343750
vt 0.105469 0.226562
vt 0.144531 0.343750
vt 0.144531 0.226562
vt 0.062500 0.343750
vt 0.062500 0.226562
vt 0.027344 0.343750
vt 0.027344 0.226562
vt 0.917969 0.351562
vt 0.886719 0.257812
vt 0.886719 0.351562
vt 0.195312 0.300781
vt 0.218750 0.300781
vt 0.218750 0.300781
vt 0.195312 0.300781
vt 0.218750 0.300781
vt 0.218750 0.300781
vt 0.195312 0.300781
vt 0.218750 0.300781
vt 0.218750 0.300781
vt 0.253906 0.222656
vt 0.410156 0.222656
vt 0.410156 0.312500
vt 0.253906 0.312500
vt 0.914062 0.226562
vt 0.957031 0.226562
vt 0.957031 0.031250
vt 0.914062 0.031250
vn -1.0000 0.0000 0.0000
vn 1.0000 0.0000 0.0000
vn 0.7071 0.7071 0.0000
vn 0.0000 0.6000 -0.8000
vn 0.0000 1.0000 0.0000
vn 0.0000 -0.9487 0.3162
vn 0.0000 0.5547 -0.8320
vn -0.7071 0.7071 0.0000
vn 0.0000 0.4472 -0.8944
vn 0.0000 -1.0000 -0.0000
vn 0.0000 -0.9988 0.0499
vn 0.0000 0.7071 0.7071
vn -0.7071 -0.7071 -0.0000
vn 0.7071 -0.7071 -0.0000
vn 0.0000 0.8944 -0.4472
vn 0.5774 -0.5773 0.5774
vn -0.5774 -0.5774 0.5774
vn -0.5774 0.5773 0.5774
vn 0.5774 0.5773 0.5774
vn 0.0000 0.7071 -0.7071
vn -0.9487 0.3162 0.0000
vn 0.9487 0.3162 0.0000
vn 0.0000 -0.0000 1.0000
vn 0.0000 0.0000 -1.0000
vn 0.0000 -0.7071 0.7071
vn 0.0000 -0.7071 -0.7071
vn 0.0000 0.8320 0.5547
vn -0.7071 0.0000 0.7071
vn 0.0000 -0.8944 -0.4472
vn 0.0000 -0.8320 0.5547
vn 0.7071 0.0000 0.7071
vn 0.0643 -0.9642 0.2571
vn 0.0000 -0.9861 0.1660
vn 0.0135 -0.9933 0.1150
vn -0.9756 0.0000 0.2195
vn -0.6935 0.6935 0.1950
vn 0.0000 -0.9975 0.0707
vn -0.0135 -0.9933 0.1150
vn 0.9505 0.3055 -0.0569
vn 0.7167 0.3915 0.5770
vn 0.7055 0.3904 0.5914
vn 0.9435 0.3301 0.0294
vn 0.6480 0.1359 -0.7494
vn 0.6925 0.1487 -0.7059
vn 0.0000 0.0357 -0.9994
vn 0.0000 0.3939 0.9191
vn -0.7167 0.3915 0.5770
vn -0.7055 0.3904 0.5914
vn -0.9505 0.3055 -0.0569
vn -0.9435 0.3301 0.0294
vn -0.6480 0.1359 -0.7494
vn -0.6925 0.1487 -0.7059
vn -0.0643 -0.9642 0.2571
vn -0.9951 -0.0798 -0.0572
vn -0.7836 0.3668 0.5014
vn -0.4230 0.7732 0.4724
vn 0.0347 0.8806 0.4725
vn -0.4605 0.4836 0.7443
vn 0.4523 0.8910 0.0383
vn -0.7548 -0.5054 0.4181
vn -0.7627 -0.6448 -0.0510
vn -0.3102 -0.8380 -0.4488
vn -0.7226 -0.1889 -0.6648
vn -0.6737 0.7086 -0.2096
vn 0.3106 0.7804 0.5427
vn 0.7804 0.5076 0.3652
vn 0.8730 0.4633 -0.1518
vn 0.6906 -0.0131 -0.7231
vn 0.6691 0.6389 -0.3795
vn 0.3801 -0.3869 -0.8401
vn 0.0199 0.7273 0.6860
vn -0.4624 -0.2128 0.8607
vn -0.2845 -0.9581 -0.0317
vn -0.1507 -0.8780 -0.4543
vn 0.4276 -0.6944 -0.5788
vn 0.8353 -0.5006 -0.2275
vn 0.1340 -0.9046 -0.4047
vn -0.3618 -0.3855 -0.8488
vn -0.5023 0.4537 -0.7361
vn 0.0214 0.9980 0.0582
vn 0.5362 -0.1486 0.8309
vn 0.8025 -0.3634 0.4732
vn 0.5534 -0.5534 -0.6225
vn 0.0000 -0.7433 -0.6689
vn -0.5534 0.5534 -0.6225
vn 0.0000 0.7433 -0.6689
vn -0.5534 -0.5534 -0.6225
vn -0.7433 0.0000 -0.6689
vn 0.7433 0.0000 -0.6689
vn 0.5534 0.5534 -0.6225
vn 0.6935 -0.6935 0.1950
vn 0.0000 -0.9756 0.2195
vn 0.0000 0.9756 0.2195
vn -0.6935 -0.6935 0.1950
vn 0.6935 0.6935 0.1950
vn 0.9756 0.0000 0.2195
vn 0.4767 -0.8604 0.1799
usemtl weapon1
s off
f 1/1/1 3/2/1 2/3/1
f 2/3/1 3/2/1 4/4/1
f 4/4/1 3/2/1 5/5/1
f 3/2/1 6/6/1 5/5/1
f 5/5/1 6/6/1 7/7/1
f 8/8/2 10/9/2 9/10/2
f 10/9/2 11/11/2 9/10/2
f 9/10/2 11/11/2 12/12/2
f 12/12/2 11/11/2 13/13/2
f 11/11/2 14/14/2 13/13/2
f 19/15/3 10/9/3 8/8/3 20/16/3
f 33/17/4 34/18/4 49/19/4 50/20/4
f 27/21/5 28/22/5 29/23/5 30/24/5
f 90/25/5 89/26/5 87/27/5 86/28/5
f 26/29/6 32/30/6 31/31/6 23/32/6
f 36/33/7 37/34/7 46/35/7 48/36/7
f 7/7/8 6/6/8 18/37/8 17/38/8
f 20/39/9 8/40/9 7/41/9
f 7/41/9 17/42/9 20/39/9
f 77/43/10 75/44/10 63/45/10 62/46/10
f 92/47/11 91/48/11 85/49/11 88/50/11
f 35/51/10 33/52/10 50/53/10 47/54/10
f 6/55/12 10/56/12 19/57/12 18/58/12
f 16/59/13 32/60/13 2/3/13
f 2/3/13 4/4/13 16/59/13
f 15/61/14 12/12/14 13/13/14
f 13/13/14 31/62/14 15/61/14
f 72/63/5 71/64/5 69/65/5 68/66/5
f 81/67/15 84/68/15 87/27/15 89/26/15
f 21/69/5 22/70/5 5/71/5 9/72/5
f 5/5/1 22/73/1 4/4/1
f 9/10/2 12/12/2 21/74/2
f 31/62/16 13/13/16 23/75/16
f 2/3/17 32/60/17 26/76/17
f 25/77/18 27/21/18 1/78/18
f 14/79/19 28/22/19 24/80/19
f 37/81/1 36/82/1 35/83/1 38/84/1
f 33/85/1 35/83/1 34/86/1
f 34/86/1 35/83/1 36/82/1
f 46/87/2 45/88/2 47/89/2 48/90/2
f 48/90/2 47/89/2 49/91/2
f 47/89/2 50/92/2 49/91/2
f 71/64/20 74/93/20 70/94/20 69/65/20
f 61/95/2 62/96/2 63/97/2
f 61/95/2 63/97/2 64/98/2
f 63/97/2 65/99/2 64/98/2
f 61/95/2 64/98/2 66/100/2
f 67/101/21 68/102/21 69/103/21
f 69/103/21 70/104/21 67/101/21
f 71/105/22 72/106/22 73/107/22
f 73/107/22 74/108/22 71/105/22
f 9/109/20 5/110/20 7/111/20 8/112/20
f 3/113/8 1/78/8 27/21/8 30/24/8
f 38/114/23 35/115/23 47/116/23 45/117/23
f 21/118/24 12/119/24 4/120/24 22/121/24
f 78/122/25 77/43/25 62/46/25 61/123/25
f 34/124/5 36/125/5 48/126/5 49/127/5
f 89/128/1 90/129/1 91/130/1 92/131/1
f 85/132/2 86/133/2 87/134/2 88/135/2
f 78/136/1 79/137/1 80/138/1
f 78/136/1 80/138/1 75/139/1
f 80/138/1 76/140/1 75/139/1
f 78/136/1 75/139/1 77/141/1
f 75/44/26 76/142/26 65/143/26 63/45/26
f 80/144/23 79/145/23 66/146/23 64/147/23
f 84/148/2 83/149/2 88/135/2
f 88/135/2 87/134/2 84/148/2
f 82/150/1 81/151/1 89/128/1
f 89/128/1 92/131/1 82/150/1
f 28/22/27 27/21/27 25/77/27 24/80/27
f 15/152/10 31/31/10 32/30/10 16/153/10
f 23/154/23 24/155/23 25/156/23 26/157/23
f 37/158/5 38/159/5 45/160/5 46/161/5
f 17/162/5 18/163/5 19/164/5 20/165/5
f 26/76/28 25/166/28 1/1/28 2/3/28
f 81/67/5 82/167/5 83/168/5 84/68/5
f 12/169/29 15/170/29 16/59/29 4/4/29
f 11/171/23 10/172/23 6/173/23 3/174/23
f 79/175/10 78/122/10 61/123/10 66/176/10
f 29/23/3 28/22/3 14/79/3 11/177/3
f 83/168/30 82/167/30 92/47/30 88/50/30
f 13/13/31 14/14/31 24/178/31 23/75/31
s 1
f 199/179/2 188/180/14 107/181/14 93/182/2
f 172/183/10 174/184/14 175/185/14 173/186/10
f 201/187/32 206/188/33 202/189/34
f 195/190/35 186/191/36 140/192/36 203/193/35
f 176/194/37 184/195/38 177/196/10
f 155/197/23 192/198/23 193/199/23 152/200/23
f 59/201/39 58/202/40 44/203/41 43/204/42
f 60/205/43 205/206/44 41/207/45 52/208/45
f 57/209/46 55/210/47 207/211/48 42/212/46
f 60/205/43 59/201/39 43/204/42 205/206/44
f 58/202/40 57/209/46 42/212/46 44/203/41
f 55/210/47 54/213/49 40/214/50 207/211/48
f 54/213/49 53/215/51 39/216/52 40/214/50
f 160/217/2 161/218/3 162/219/3 163/220/2
f 181/221/13 180/222/1 101/223/1 103/224/13
f 170/225/13 172/226/10 173/227/10 171/228/13
f 161/229/3 164/230/5 165/231/5 162/232/3
f 188/180/14 187/233/10 105/234/10 107/181/14
f 164/235/5 166/236/8 167/237/8 165/238/5
f 176/194/37 202/189/34 206/188/33 184/195/38
f 174/239/14 160/240/2 163/241/2 175/242/14
f 206/188/33 51/243/53 184/195/38
f 56/244/10 202/189/34 176/194/37
f 180/222/1 189/245/8 99/246/8 101/223/1
f 168/247/1 170/248/13 171/249/13 169/250/1
f 197/251/5 196/252/3 94/253/3 97/254/5
f 109/255/54 111/256/55 110/257/56
f 110/257/56 111/256/55 112/258/57
f 111/256/55 113/259/58 112/258/57
f 112/258/57 113/259/58 114/260/59
f 113/259/58 111/256/55 115/261/60
f 115/261/60 111/256/55 116/262/61
f 111/256/55 109/255/54 116/262/61
f 116/262/61 109/255/54 117/263/62
f 117/263/62 109/255/54 118/264/63
f 118/264/63 109/255/54 119/265/64
f 109/255/54 110/257/56 119/265/64
f 119/265/64 110/257/56 120/266/65
f 120/266/65 110/257/56 121/267/66
f 110/257/56 112/258/57 121/267/66
f 121/267/66 112/258/57 122/268/67
f 112/258/57 114/260/59 122/268/67
f 122/268/67 114/260/59 123/269/68
f 114/260/59 124/270/69 123/269/68
f 123/269/68 124/270/69 125/271/70
f 124/270/69 114/260/59 126/272/71
f 114/260/59 113/259/58 126/272/71
f 126/272/71 113/259/58 127/273/72
f 113/259/58 115/261/60 127/273/72
f 127/273/72 115/261/60 128/274/73
f 128/274/73 115/261/60 129/275/74
f 115/261/60 116/262/61 129/275/74
f 129/275/74 116/262/61 130/276/75
f 116/262/61 117/263/62 130/276/75
f 130/276/75 117/263/62 131/277/76
f 131/277/76 117/263/62 132/278/77
f 117/263/62 118/264/63 132/278/77
f 132/278/77 118/264/63 133/279/78
f 133/279/78 118/264/63 134/280/79
f 118/264/63 119/265/64 134/280/79
f 134/280/79 119/265/64 135/281/80
f 119/265/64 120/266/65 135/281/80
f 135/281/80 120/266/65 136/282/81
f 136/282/81 120/266/65 137/283/82
f 120/266/65 121/267/66 137/283/82
f 137/283/82 121/267/66 131/284/76
f 121/267/66 122/268/67 131/284/76
f 131/284/76 122/268/67 130/285/75
f 122/268/67 123/269/68 130/285/75
f 130/285/75 123/269/68 129/286/74
f 123/269/68 125/271/70 129/286/74
f 129/286/74 125/271/70 128/287/73
f 191/288/83 190/289/84 104/290/84 106/291/83
f 200/292/85 139/293/86 96/294/86 98/295/85
f 198/296/87 141/297/88 100/298/88 102/299/87
f 194/300/89 191/288/83 106/291/83 108/301/89
f 141/297/88 200/292/85 98/295/85 100/298/88
f 190/289/84 198/296/87 102/299/87 104/290/84
f 194/300/89 108/301/89 95/302/90 138/303/90
f 182/304/91 151/305/92 143/306/92 144/307/91
f 186/191/36 185/308/93 179/309/93 140/192/36
f 150/310/94 195/190/35 203/193/35 142/311/94
f 185/308/93 204/312/95 178/313/95 179/309/93
f 183/314/96 145/315/96 178/313/95 204/312/95
f 53/215/51 52/208/45 41/207/45 39/216/52
f 183/314/96 182/304/91 144/307/91 145/315/96
f 151/305/92 150/310/94 142/311/94 143/306/92
f 133/279/78 154/316/97 132/278/77
f 137/317/82 132/278/77 154/316/97
f 132/278/77 137/317/82 131/277/76
f 154/316/97 136/318/81 137/317/82
f 139/293/86 138/303/90 95/302/90 96/294/86
f 155/197/23 148/319/23 149/320/23 192/321/23
f 152/322/23 153/323/23 146/324/23 155/197/23
f 155/197/23 146/325/23 147/326/23 148/327/23
f 199/179/2 93/182/2 94/253/3 196/252/3
f 189/245/8 197/251/5 97/254/5 99/246/8
f 156/328/5 157/329/5 158/330/5 159/331/5
f 187/233/10 181/221/13 103/224/13 105/234/10
f 166/332/8 168/333/1 169/334/1 167/335/8
